<svg width="188" height="109" viewBox="0 0 188 109" fill="none" xmlns="http://www.w3.org/2000/svg">
<rect width="188" height="109" fill="#FFC700"/>
<path d="M36.3125 72V27.3125H55.375C63.875 27.3125 68.125 30.7812 68.125 37.7188C68.125 42.8021 65.3542 46.4375 59.8125 48.625C65.7292 49.7292 68.6875 53.1146 68.6875 58.7812C68.6875 67.5938 64.0312 72 54.7188 72H36.3125ZM54.375 67.3125C59.7083 67.3125 62.375 64.6042 62.375 59.1875C62.375 53.9167 58.8021 51.2812 51.6562 51.2812H49.1562V47.5C57.6979 46.3542 61.9688 43.2708 61.9688 38.25C61.9688 34.0833 59.5938 32 54.8438 32H42.0938V67.3125H54.375ZM79.3438 72H73.3438L92.3125 27.3125H98.7188L117.781 72H111.375L105.594 57.9375H90.8125L92.4062 53.25H103.656L95.3125 33L79.3438 72ZM157.625 70.4375C153.771 71.6875 149.604 72.3125 145.125 72.3125C129.5 72.3125 121.688 64.5521 121.688 49.0312C121.688 34.3438 129.5 27 145.125 27C149.604 27 153.771 27.625 157.625 28.875V33.875C153.771 32.4167 149.812 31.6875 145.75 31.6875C133.562 31.6875 127.469 37.4688 127.469 49.0312C127.469 61.4271 133.562 67.625 145.75 67.625C149.812 67.625 153.771 66.8958 157.625 65.4375V70.4375Z" fill="#003F5A"/>
</svg>
