<svg width="50" height="50" viewBox="0 0 50 50" fill="none" xmlns="http://www.w3.org/2000/svg">
<path d="M26.125 19.0496C26.125 18.9818 26.125 18.9049 26.1224 18.8156C26.1199 18.5663 26.1147 18.2862 26.1096 17.9877C26.0891 17.129 26.0531 16.2733 25.9967 15.4669C25.9196 14.3558 25.8067 13.4294 25.6527 12.7338C25.4901 12.0079 25.1716 11.3458 24.7288 10.8138C24.2859 10.2818 23.7344 9.89843 23.1294 9.70207C22.4029 9.46815 20.9808 9.32349 18.9786 9.23423C18.0262 9.19114 17.0071 9.16344 15.9881 9.14805C15.6312 9.1419 15.3001 9.13882 15.0023 9.13574H14.2477C13.9499 9.13882 13.6188 9.1419 13.2619 9.14805C12.2429 9.16344 11.2238 9.19114 10.2714 9.23423C8.2692 9.32657 6.84453 9.47123 6.12065 9.70207C5.51536 9.89794 4.96364 10.2811 4.52077 10.8132C4.07791 11.3453 3.75945 12.0076 3.59732 12.7338C3.44074 13.4294 3.33036 14.3558 3.25335 15.4669C3.19687 16.2733 3.16094 17.129 3.1404 17.9877C3.1327 18.2862 3.13013 18.5663 3.12757 18.8156C3.12757 18.9049 3.125 18.9818 3.125 19.0496V19.2219C3.125 19.2896 3.125 19.3666 3.12757 19.4558C3.13013 19.7051 3.13527 19.9852 3.1404 20.2838C3.16094 21.1425 3.19687 21.9982 3.25335 22.8046C3.33036 23.9157 3.4433 24.8421 3.59732 25.5377C3.92589 27.012 4.89107 28.1754 6.12065 28.5694C6.84453 28.8033 8.2692 28.948 10.2714 29.0372C11.2238 29.0803 12.2429 29.108 13.2619 29.1234C13.6188 29.1296 13.9499 29.1327 14.2477 29.1357H15.0023C15.3001 29.1327 15.6312 29.1296 15.9881 29.1234C17.0071 29.108 18.0262 29.0803 18.9786 29.0372C20.9808 28.9449 22.4055 28.8003 23.1294 28.5694C24.3589 28.1754 25.3241 27.0151 25.6527 25.5377C25.8093 24.8421 25.9196 23.9157 25.9967 22.8046C26.0531 21.9982 26.0891 21.1425 26.1096 20.2838C26.1173 19.9852 26.1199 19.7051 26.1224 19.4558C26.1224 19.3666 26.125 19.2896 26.125 19.2219V19.0496ZM24.2768 19.2096C24.2768 19.2742 24.2768 19.345 24.2742 19.4281C24.2717 19.6682 24.2665 19.9329 24.2614 20.2192C24.2434 21.0379 24.2075 21.8566 24.1536 22.6168C24.0843 23.6079 23.9867 24.4204 23.8661 24.9652C23.7069 25.6762 23.2397 26.2395 22.6493 26.4272C22.1103 26.5996 20.7523 26.7381 18.9067 26.8212C17.9723 26.8643 16.9661 26.892 15.9624 26.9074C15.6107 26.9135 15.2847 26.9166 14.9921 26.9166H14.2579L13.2876 26.9074C12.2839 26.892 11.2802 26.8643 10.3433 26.8212C8.49766 26.735 7.13717 26.5996 6.60067 26.4272C6.01027 26.2364 5.54308 25.6762 5.38393 24.9652C5.26328 24.4204 5.16574 23.6079 5.09643 22.6168C5.04252 21.8566 5.00915 21.0379 4.98862 20.2192C4.98092 19.9329 4.97835 19.6651 4.97578 19.4281C4.97578 19.345 4.97321 19.2712 4.97321 19.2096V19.0619C4.97321 18.9972 4.97321 18.9264 4.97578 18.8433C4.97835 18.6033 4.98348 18.3386 4.98862 18.0523C5.00659 17.2336 5.04252 16.4149 5.09643 15.6547C5.16574 14.6636 5.26328 13.851 5.38393 13.3063C5.54308 12.5953 6.01027 12.032 6.60067 11.8443C7.13973 11.6719 8.49766 11.5334 10.3433 11.4503C11.2777 11.4072 12.2839 11.3795 13.2876 11.3641C13.6393 11.358 13.9653 11.3549 14.2579 11.3549H14.9921L15.9624 11.3641C16.9661 11.3795 17.9698 11.4072 18.9067 11.4503C20.7523 11.5365 22.1128 11.6719 22.6493 11.8443C23.2397 12.0351 23.7069 12.5953 23.8661 13.3063C23.9867 13.851 24.0843 14.6636 24.1536 15.6547C24.2075 16.4149 24.2409 17.2336 24.2614 18.0523C24.2691 18.3386 24.2717 18.6063 24.2742 18.8433C24.2742 18.9264 24.2768 19.0003 24.2768 19.0619V19.2096ZM12.3404 23.2601L18.2958 19.105L12.3404 15.0114V23.2601Z" fill="#006794"/>
</svg>
