<svg width="30" height="30" viewBox="0 0 30 30" fill="none" xmlns="http://www.w3.org/2000/svg">
<path d="M30 5.62499V24.375C30 25.4391 29.1891 26.25 28.125 26.25H26.25V9.23343L15 17.3147L3.75 9.23343V26.25H1.875C0.810938 26.25 0 25.4391 0 24.375V5.62499C0 5.09249 0.200625 4.62374 0.537188 4.29187C0.712474 4.11649 0.921234 3.97814 1.15106 3.88505C1.38088 3.79196 1.62707 3.74603 1.875 3.74999H2.50031L15 12.8128L27.4997 3.74999H28.125C28.6575 3.74999 29.1262 3.95062 29.4628 4.29187C29.7994 4.62374 30 5.09249 30 5.62499Z" fill="#006794"/>
</svg>
