<svg width="50" height="50" viewBox="0 0 50 50" fill="none" xmlns="http://www.w3.org/2000/svg">
<g clip-path="url(#clip0)">
<path d="M25 -0.0529785C11.1859 -0.0529785 -0.0547104 11.1845 -0.0547104 25.0001C-0.0547104 38.8158 11.1859 50.0533 25 50.0533C38.814 50.0533 50.0547 38.8158 50.0547 25.0001C50.0547 11.1845 38.814 -0.0529785 25 -0.0529785ZM25 48.3845C12.1062 48.3845 1.61716 37.8939 1.61716 25.0001C1.61716 12.1064 12.1062 1.61577 25 1.61577C37.8937 1.61577 48.3828 12.1064 48.3828 25.0001C48.3828 37.8939 37.8937 48.3845 25 48.3845Z" fill="#006794"/>
<path d="M30.4688 10.9376H26.3C20.9906 10.8844 20.3125 14.1704 20.3125 17.7266V20.3126H17.9688C17.8628 20.2984 17.7551 20.3089 17.6538 20.3431C17.5526 20.3774 17.4606 20.4345 17.385 20.5101C17.3095 20.5857 17.2523 20.6776 17.2181 20.7789C17.1838 20.8801 17.1734 20.9879 17.1875 21.0938V25.7813C17.1734 25.8872 17.1838 25.995 17.2181 26.0962C17.2523 26.1975 17.3095 26.2895 17.385 26.365C17.4606 26.4406 17.5526 26.4977 17.6538 26.532C17.7551 26.5663 17.8628 26.5767 17.9688 26.5626H20.3125V38.2813C20.2995 38.3874 20.3109 38.4951 20.3459 38.5962C20.3808 38.6972 20.4384 38.7889 20.5143 38.8643C20.5901 38.9397 20.6821 38.9967 20.7834 39.0311C20.8846 39.0655 20.9924 39.0762 21.0984 39.0626H25.8719C26.3328 39.1157 26.7063 38.7422 26.5594 38.2813L26.5625 26.5626H30.4688C30.5747 26.5767 30.6825 26.5663 30.7837 26.532C30.8849 26.4977 30.9769 26.4406 31.0525 26.365C31.1281 26.2895 31.1852 26.1975 31.2194 26.0962C31.2537 25.995 31.2642 25.8872 31.25 25.7813V21.0938C31.2642 20.9879 31.2537 20.8801 31.2194 20.7789C31.1852 20.6776 31.1281 20.5857 31.0525 20.5101C30.9769 20.4345 30.8849 20.3774 30.7837 20.3431C30.6825 20.3089 30.5747 20.2984 30.4688 20.3126H26.5578L26.5625 17.9688C26.7141 16.9704 26.7141 17.1329 27.6406 17.1876H30.436C30.6531 17.1391 30.8844 17.1657 31.0469 17.0079C31.2094 16.8501 31.3031 16.6344 31.2485 16.4063V11.7188C31.2629 11.613 31.2527 11.5052 31.2186 11.404C31.1845 11.3027 31.1276 11.2107 31.0521 11.1351C30.9766 11.0595 30.8847 11.0023 30.7836 10.968C30.6824 10.9338 30.5746 10.9234 30.4688 10.9376ZM29.6328 15.5376L27.6735 15.4626C25.2469 15.4626 25.0438 16.7797 25.0438 18.1282L25.0375 21.0907C25.0373 21.2004 25.0587 21.3091 25.1006 21.4105C25.1424 21.5119 25.2038 21.604 25.2813 21.6817C25.3588 21.7593 25.4509 21.8209 25.5522 21.863C25.6536 21.905 25.7622 21.9266 25.8719 21.9266H29.6875V24.9454H25.875C25.6536 24.9454 25.4412 25.0332 25.2845 25.1897C25.1277 25.3461 25.0395 25.5583 25.0391 25.7797L25.0375 37.5001H21.875V25.7813C21.875 25.3204 21.5609 24.9469 21.0984 24.9469H18.75V21.9282H21.0984C21.2081 21.9284 21.3167 21.9069 21.418 21.8651C21.5194 21.8233 21.6115 21.7619 21.6891 21.6844C21.8453 21.5266 21.8734 21.3141 21.8734 21.0922V17.7251C21.8734 14.2219 22.5813 12.5532 26.2984 12.5532H29.6313V15.5376H29.6328Z" fill="#006794"/>
</g>
<defs>
<clipPath id="clip0">
<rect width="50" height="50" fill="white"/>
</clipPath>
</defs>
</svg>
