<svg width="61" height="57" viewBox="0 0 61 57" fill="none" xmlns="http://www.w3.org/2000/svg">
<circle cx="25.055" cy="25.055" r="24.055" stroke="#006794" stroke-width="2"/>
<path d="M37.125 26.0496C37.125 25.9818 37.125 25.9049 37.1224 25.8156C37.1199 25.5663 37.1147 25.2862 37.1096 24.9877C37.0891 24.129 37.0531 23.2733 36.9967 22.4669C36.9196 21.3558 36.8067 20.4294 36.6527 19.7338C36.4901 19.0079 36.1716 18.3458 35.7288 17.8138C35.2859 17.2818 34.7344 16.8984 34.1294 16.7021C33.4029 16.4682 31.9808 16.3235 29.9786 16.2342C29.0262 16.1911 28.0071 16.1634 26.9881 16.1481C26.6312 16.1419 26.3001 16.1388 26.0023 16.1357H25.2477C24.9499 16.1388 24.6188 16.1419 24.2619 16.1481C23.2429 16.1634 22.2238 16.1911 21.2714 16.2342C19.2692 16.3266 17.8445 16.4712 17.1206 16.7021C16.5154 16.8979 15.9636 17.2811 15.5208 17.8132C15.0779 18.3453 14.7595 19.0076 14.5973 19.7338C14.4407 20.4294 14.3304 21.3558 14.2533 22.4669C14.1969 23.2733 14.1609 24.129 14.1404 24.9877C14.1327 25.2862 14.1301 25.5663 14.1276 25.8156C14.1276 25.9049 14.125 25.9818 14.125 26.0496V26.2219C14.125 26.2896 14.125 26.3666 14.1276 26.4558C14.1301 26.7051 14.1353 26.9852 14.1404 27.2838C14.1609 28.1425 14.1969 28.9982 14.2533 29.8046C14.3304 30.9157 14.4433 31.8421 14.5973 32.5377C14.9259 34.012 15.8911 35.1754 17.1206 35.5694C17.8445 35.8033 19.2692 35.948 21.2714 36.0372C22.2238 36.0803 23.2429 36.108 24.2619 36.1234C24.6188 36.1296 24.9499 36.1327 25.2477 36.1357H26.0023C26.3001 36.1327 26.6312 36.1296 26.9881 36.1234C28.0071 36.108 29.0262 36.0803 29.9786 36.0372C31.9808 35.9449 33.4055 35.8003 34.1294 35.5694C35.3589 35.1754 36.3241 34.0151 36.6527 32.5377C36.8093 31.8421 36.9196 30.9157 36.9967 29.8046C37.0531 28.9982 37.0891 28.1425 37.1096 27.2838C37.1173 26.9852 37.1199 26.7051 37.1224 26.4558C37.1224 26.3666 37.125 26.2896 37.125 26.2219V26.0496ZM35.2768 26.2096C35.2768 26.2742 35.2768 26.345 35.2742 26.4281C35.2717 26.6682 35.2665 26.9329 35.2614 27.2192C35.2434 28.0379 35.2075 28.8566 35.1536 29.6168C35.0843 30.6079 34.9867 31.4204 34.8661 31.9652C34.7069 32.6762 34.2397 33.2395 33.6493 33.4272C33.1103 33.5996 31.7523 33.7381 29.9067 33.8212C28.9723 33.8643 27.9661 33.892 26.9624 33.9074C26.6107 33.9135 26.2847 33.9166 25.9921 33.9166H25.2579L24.2876 33.9074C23.2839 33.892 22.2802 33.8643 21.3433 33.8212C19.4977 33.735 18.1372 33.5996 17.6007 33.4272C17.0103 33.2364 16.5431 32.6762 16.3839 31.9652C16.2633 31.4204 16.1657 30.6079 16.0964 29.6168C16.0425 28.8566 16.0092 28.0379 15.9886 27.2192C15.9809 26.9329 15.9783 26.6651 15.9758 26.4281C15.9758 26.345 15.9732 26.2712 15.9732 26.2096V26.0619C15.9732 25.9972 15.9732 25.9264 15.9758 25.8433C15.9783 25.6033 15.9835 25.3386 15.9886 25.0523C16.0066 24.2336 16.0425 23.4149 16.0964 22.6547C16.1657 21.6636 16.2633 20.851 16.3839 20.3063C16.5431 19.5953 17.0103 19.032 17.6007 18.8443C18.1397 18.6719 19.4977 18.5334 21.3433 18.4503C22.2777 18.4072 23.2839 18.3795 24.2876 18.3641C24.6393 18.358 24.9653 18.3549 25.2579 18.3549H25.9921L26.9624 18.3641C27.9661 18.3795 28.9698 18.4072 29.9067 18.4503C31.7523 18.5365 33.1128 18.6719 33.6493 18.8443C34.2397 19.0351 34.7069 19.5953 34.8661 20.3063C34.9867 20.851 35.0843 21.6636 35.1536 22.6547C35.2075 23.4149 35.2409 24.2336 35.2614 25.0523C35.2691 25.3386 35.2717 25.6063 35.2742 25.8433C35.2742 25.9264 35.2768 26.0003 35.2768 26.0619V26.2096ZM23.3404 30.2601L29.2958 26.105L23.3404 22.0114V30.2601Z" fill="#006794"/>
</svg>
