<svg width="50" height="50" viewBox="0 0 50 50" fill="none" xmlns="http://www.w3.org/2000/svg">
<g clip-path="url(#clip0)">
<path d="M25 -0.0529785C11.1859 -0.0529785 -0.0547237 11.1845 -0.0547237 25.0001C-0.0547237 38.8158 11.1859 50.0533 25 50.0533C38.814 50.0533 50.0547 38.8158 50.0547 25.0001C50.0547 11.1845 38.814 -0.0529785 25 -0.0529785ZM25 48.3845C12.1062 48.3845 1.61715 37.8939 1.61715 25.0001C1.61715 12.1064 12.1062 1.61577 25 1.61577C37.8937 1.61577 48.3828 12.1064 48.3828 25.0001C48.3828 37.8939 37.8937 48.3845 25 48.3845Z" fill="#006794"/>
<path d="M38.7406 17.2595C38.9139 16.9387 39.0567 16.6023 39.1671 16.2548C39.2182 16.0936 39.2193 15.9207 39.1701 15.7589C39.1209 15.5972 39.0238 15.4541 38.8916 15.3486C38.7594 15.2432 38.5983 15.1803 38.4296 15.1683C38.261 15.1563 38.0926 15.1957 37.9468 15.2814C37.1462 15.757 36.2795 16.1114 35.3749 16.333C34.2769 15.342 32.8509 14.7926 31.3718 14.7908C30.5682 14.7914 29.7731 14.9543 29.034 15.2696C28.2949 15.585 27.6271 16.0463 27.0706 16.626C26.5141 17.2057 26.0804 17.8918 25.7955 18.6432C25.5105 19.3945 25.3803 20.1957 25.4124 20.9986C21.8984 20.5562 18.6895 18.778 16.4515 16.033C16.3658 15.929 16.2562 15.8472 16.1321 15.7946C16.008 15.742 15.873 15.7202 15.7386 15.7309C15.6043 15.7417 15.4745 15.7847 15.3603 15.8563C15.2461 15.9279 15.1509 16.026 15.0828 16.1423C14.5703 17.0219 14.2917 18.0181 14.2737 19.0359C14.2556 20.0537 14.4987 21.0592 14.9796 21.9564C14.8617 21.9763 14.7484 22.0176 14.6453 22.0783C14.5189 22.1588 14.4149 22.2699 14.3428 22.4013C14.2707 22.5326 14.2329 22.68 14.2328 22.8298C14.2328 24.6033 15.0218 26.2314 16.2937 27.3376L16.239 27.3923C16.143 27.501 16.0769 27.6327 16.0473 27.7747C16.0177 27.9166 16.0256 28.0638 16.0703 28.2017C16.3355 29.0291 16.7783 29.7885 17.3678 30.4268C17.9572 31.0651 18.6791 31.5669 19.4828 31.897C17.8321 32.7023 15.9849 33.0163 14.1609 32.8017C13.9734 32.7826 13.7849 32.8262 13.6248 32.9258C13.4648 33.0253 13.3423 33.1751 13.2765 33.3517C13.2133 33.5296 13.2122 33.7237 13.2731 33.9024C13.3341 34.0811 13.4537 34.2339 13.6124 34.3361C16.0921 35.9276 18.9769 36.7731 21.9234 36.772C31.5796 36.772 37.3515 28.9283 37.3515 21.3455L37.3499 21.0892C38.2858 20.3586 39.0986 19.483 39.7578 18.4955C39.8576 18.3462 39.9066 18.1687 39.8977 17.9894C39.8888 17.81 39.8224 17.6383 39.7083 17.4996C39.5942 17.361 39.4384 17.2628 39.2641 17.2195C39.0898 17.1763 38.9063 17.1903 38.7406 17.2595ZM36.014 20.0017C35.9006 20.0832 35.8095 20.1919 35.7489 20.3177C35.6883 20.4435 35.6602 20.5825 35.6671 20.722C35.6765 20.9283 35.6812 21.1376 35.6812 21.3439C35.6812 28.1064 30.5359 35.1017 21.9249 35.1017C20.3892 35.1024 18.8642 34.8446 17.414 34.3392C19.1509 34.0064 20.7825 33.2615 22.1718 32.1673C22.3071 32.0607 22.4061 31.9149 22.4553 31.7499C22.5045 31.5848 22.5016 31.4086 22.4469 31.2453C22.3921 31.082 22.2883 30.9396 22.1496 30.8375C22.0109 30.7355 21.844 30.6788 21.6718 30.6751C20.9981 30.6623 20.3368 30.4913 19.7414 30.1759C19.1459 29.8605 18.6329 29.4096 18.2437 28.8595C18.639 28.833 19.0265 28.7673 19.4031 28.6658C19.5853 28.617 19.7457 28.5079 19.8579 28.3563C19.9702 28.2046 20.0277 28.0195 20.0212 27.8309C20.0147 27.6424 19.9445 27.4616 19.822 27.3181C19.6995 27.1746 19.532 27.0768 19.3468 27.0408C18.5859 26.886 17.8814 26.5273 17.3087 26.003C16.7359 25.4787 16.3165 24.8085 16.0953 24.0642C16.5109 24.1689 16.9374 24.2298 17.364 24.2439C17.7312 24.2423 18.0718 24.0173 18.1859 23.6642C18.2999 23.3111 18.1656 22.922 17.8546 22.7158C17.1194 22.2259 16.5534 21.5211 16.2337 20.6975C15.9141 19.8739 15.8564 18.9718 16.0687 18.1142C18.7828 20.8991 22.4477 22.5574 26.3312 22.758C26.6062 22.7595 26.8468 22.6611 27.014 22.4595C27.1812 22.258 27.2453 21.9908 27.1859 21.7345C26.9722 20.8142 27.0678 19.8491 27.4578 18.9886C27.8479 18.1281 28.5107 17.4201 29.3437 16.9743C30.1767 16.5284 31.1334 16.3696 32.0658 16.5222C32.9982 16.6749 33.8542 17.1306 34.5015 17.8189C34.5985 17.9224 34.7203 17.9995 34.8553 18.043C34.9903 18.0864 35.1342 18.0948 35.2734 18.0673C35.5312 18.0158 35.7859 17.9564 36.0374 17.8876C35.924 17.9725 35.8062 18.0513 35.6843 18.1236C35.5223 18.2228 35.3989 18.3743 35.3345 18.5531C35.2701 18.7319 35.2685 18.9272 35.33 19.107C35.3915 19.2868 35.5124 19.4402 35.6729 19.5421C35.8333 19.644 36.0236 19.6881 36.2124 19.6673L36.4968 19.6314C36.3402 19.7604 36.1792 19.8839 36.014 20.0017Z" fill="#006794"/>
</g>
<defs>
<clipPath id="clip0">
<rect width="50" height="50" fill="white"/>
</clipPath>
</defs>
</svg>
