<?xml version="1.0" encoding="UTF-8" standalone="no"?>
<!-- Generator: Adobe Illustrator 19.2.0, SVG Export Plug-In . SVG Version: 6.00 Build 0)  -->

<svg
   xmlns:dc="http://purl.org/dc/elements/1.1/"
   xmlns:cc="http://creativecommons.org/ns#"
   xmlns:rdf="http://www.w3.org/1999/02/22-rdf-syntax-ns#"
   xmlns:svg="http://www.w3.org/2000/svg"
   xmlns="http://www.w3.org/2000/svg"
   xmlns:sodipodi="http://sodipodi.sourceforge.net/DTD/sodipodi-0.dtd"
   xmlns:inkscape="http://www.inkscape.org/namespaces/inkscape"
   version="1.1"
   id="F"
   x="0px"
   y="0px"
   viewBox="0 0 220.00001 100"
   xml:space="preserve"
   inkscape:version="0.91 r13725"
   sodipodi:docname="kbs_logo_fr.svg"
   width="220"
   height="100"><metadata
     id="metadata175"><rdf:RDF><cc:Work
         rdf:about=""><dc:format>image/svg+xml</dc:format><dc:type
           rdf:resource="http://purl.org/dc/dcmitype/StillImage" /><dc:title></dc:title></cc:Work></rdf:RDF></metadata><defs
     id="defs173" /><sodipodi:namedview
     pagecolor="#ffffff"
     bordercolor="#666666"
     borderopacity="1"
     objecttolerance="10"
     gridtolerance="10"
     guidetolerance="10"
     inkscape:pageopacity="0"
     inkscape:pageshadow="2"
     inkscape:window-width="1366"
     inkscape:window-height="706"
     id="namedview171"
     showgrid="false"
     inkscape:zoom="1.148172"
     inkscape:cx="155.89999"
     inkscape:cy="63.799999"
     inkscape:window-x="-8"
     inkscape:window-y="-8"
     inkscape:window-maximized="1"
     inkscape:current-layer="F" /><style
     type="text/css"
     id="style3">
	.st0{fill-rule:evenodd;clip-rule:evenodd;}
</style><g
     id="g5"
     transform="translate(-10.000001,0.400002)"><polygon
       points="60,74.1 60,12.9 60,12.9 60.9,12.9 60.9,74.1 "
       id="polygon7" /><path
       class="st0"
       d="m 46.1,41.3 c 1.1,2.3 1,4.5 -0.1,7 -1.2,2.6 -5.3,4.6 -5.8,4.8 3.6,0.4 7.1,2.8 8.3,6.8 1.2,4.2 0.1,8.5 -2.3,11 -2.2,2.3 -4.8,3.4 -9.5,3.3 -3.2,-0.1 -4.9,-0.3 -8,-0.3 -1.4,0 -2.3,0.1 -2.3,0.1 l -0.2,-1 c 0.9,-0.2 2.2,0.1 3.1,-1.2 0.4,-0.5 0.6,-4.3 0.7,-7 0.1,-3.5 0.1,-8.9 0.1,-8.9 0,0 0,-6 -0.1,-9.9 0,-0.6 0,-1 -0.1,-1.6 -0.1,-1.8 -0.3,-4.5 -0.3,-4.5 -0.1,-0.7 -0.1,-1.3 -1.1,-1.8 -1,-0.5 -2.3,-0.5 -2.9,-0.4 l 0,-0.9 c 3.2,0.3 6.2,0.3 9.4,0.1 4.9,-0.4 9.3,0.3 11.1,4.4 l 0,0 z m -4.2,0.1 c 1.8,2.4 1.7,5.7 0.7,7.5 -1.3,2.5 -3.7,3.7 -6.1,3.7 -0.7,0 -1.1,-0.1 -1.7,-0.3 l -0.3,1.9 c 0.9,-0.3 1.4,-0.3 2.4,-0.3 3.3,0 5.1,1.9 6.8,4.6 2.1,3.4 1.5,8.5 -0.3,10.9 -2,2.6 -4.7,3.4 -8,2.8 -0.8,-0.1 -1.1,-0.2 -2,-0.6 0,0 -0.2,-5.8 -0.2,-9.5 -0.1,-6.1 0,-9.5 0,-15.5 0,-3.1 0.1,-7.9 0.1,-7.9 2.2,-0.5 4.9,-0.3 6.7,0.9 0.9,0.6 1.3,1 1.9,1.8 l 0,0 z"
       id="path9"
       inkscape:connector-curvature="0"
       style="clip-rule:evenodd;fill-rule:evenodd" /><path
       d="m 31.7,14.1 c 0,-0.6 0.5,-1.1 1.1,-1.1 0.6,0 1.1,0.5 1.1,1.1 0,0.6 -0.5,1.1 -1.1,1.1 -0.6,0 -1.1,-0.5 -1.1,-1.1 l 0,0 z"
       id="path11"
       inkscape:connector-curvature="0" /><path
       d="m 29.2,14.3 c 0,-0.6 0.5,-1.1 1.1,-1.1 0.6,0 1.1,0.5 1.1,1.1 0,0.6 -0.5,1.1 -1.1,1.1 -0.6,0 -1.1,-0.5 -1.1,-1.1 l 0,0 z"
       id="path13"
       inkscape:connector-curvature="0" /><path
       d="m 28.1,18.6 c 0,-0.6 0.5,-1.1 1.1,-1.1 0.6,0 1.1,0.5 1.1,1.1 0,0.6 -0.5,1.1 -1.1,1.1 -0.6,0 -1.1,-0.5 -1.1,-1.1 l 0,0 z"
       id="path15"
       inkscape:connector-curvature="0" /><path
       d="m 27.5,16.2 c 0,-0.6 0.5,-1.1 1.1,-1.1 0.6,0 1.1,0.5 1.1,1.1 0,0.6 -0.5,1.1 -1.1,1.1 -0.6,0 -1.1,-0.5 -1.1,-1.1 l 0,0 z"
       id="path17"
       inkscape:connector-curvature="0" /><path
       d="m 25.2,15.1 c 0,-0.6 0.5,-1.1 1.1,-1.1 0.6,0 1.1,0.5 1.1,1.1 0,0.6 -0.5,1.1 -1.1,1.1 -0.6,0.1 -1.1,-0.5 -1.1,-1.1 l 0,0 z"
       id="path19"
       inkscape:connector-curvature="0" /><path
       d="m 22.8,16.1 c 0,-0.6 0.5,-1.1 1.1,-1.1 0.6,0 1.1,0.5 1.1,1.1 0,0.6 -0.5,1.1 -1.1,1.1 -0.6,0 -1.1,-0.5 -1.1,-1.1 l 0,0 z"
       id="path21"
       inkscape:connector-curvature="0" /><path
       d="m 21.2,18.1 c 0,-0.6 0.5,-1.1 1.1,-1.1 0.6,0 1.1,0.5 1.1,1.1 0,0.6 -0.5,1.1 -1.1,1.1 -0.6,0 -1.1,-0.5 -1.1,-1.1 l 0,0 z"
       id="path23"
       inkscape:connector-curvature="0" /><path
       d="m 21.4,20.7 c 0,-0.6 0.5,-1.1 1.1,-1.1 0.6,0 1.1,0.5 1.1,1.1 0,0.6 -0.5,1.1 -1.1,1.1 -0.6,0 -1.1,-0.5 -1.1,-1.1 l 0,0 z"
       id="path25"
       inkscape:connector-curvature="0" /><path
       d="m 27.4,31 c 0,-0.8 4.2,-1.4 9.4,-1.4 5.2,0 9.4,0.6 9.4,1.4 0,0.8 -4.2,1.4 -9.4,1.4 -5.2,0 -9.4,-0.7 -9.4,-1.4 l 0,0 z"
       id="path27"
       inkscape:connector-curvature="0" /><path
       d="m 36.8,14.7 c -1,0 -1.8,-0.7 -1.9,-1.7 0.7,-0.3 1.2,-0.3 1.9,-0.3 0.8,0 1.3,0.1 1.9,0.3 -0.1,1 -0.9,1.7 -1.9,1.7 l 0,0 z"
       id="path29"
       inkscape:connector-curvature="0" /><path
       d="m 39.6,14.1 c 0,-0.6 0.5,-1.1 1.1,-1.1 0.6,0 1.1,0.5 1.1,1.1 0,0.6 -0.5,1.1 -1.1,1.1 -0.6,0 -1.1,-0.5 -1.1,-1.1 l 0,0 z"
       id="path31"
       inkscape:connector-curvature="0" /><path
       d="m 42.1,14.3 c 0,-0.6 0.5,-1.1 1.1,-1.1 0.6,0 1.1,0.5 1.1,1.1 0,0.6 -0.5,1.1 -1.1,1.1 -0.6,0 -1.1,-0.5 -1.1,-1.1 l 0,0 z"
       id="path33"
       inkscape:connector-curvature="0" /><path
       d="m 43.7,16.1 c 0,-0.6 0.5,-1.1 1.1,-1.1 0.6,0 1.1,0.5 1.1,1.1 0,0.6 -0.5,1.1 -1.1,1.1 -0.5,0 -1.1,-0.5 -1.1,-1.1 l 0,0 z"
       id="path35"
       inkscape:connector-curvature="0" /><path
       d="m 46.1,15 c 0,-0.6 0.5,-1.1 1.1,-1.1 0.6,0 1.1,0.5 1.1,1.1 0,0.6 -0.5,1.1 -1.1,1.1 -0.6,0.1 -1.1,-0.4 -1.1,-1.1 l 0,0 z"
       id="path37"
       inkscape:connector-curvature="0" /><path
       d="m 43.2,18.5 c 0,-0.6 0.5,-1.1 1.1,-1.1 0.6,0 1.1,0.5 1.1,1.1 0,0.6 -0.5,1.1 -1.1,1.1 -0.6,0 -1.1,-0.5 -1.1,-1.1 l 0,0 z"
       id="path39"
       inkscape:connector-curvature="0" /><path
       d="m 48.5,16 c 0,-0.6 0.5,-1.1 1.1,-1.1 0.6,0 1.1,0.5 1.1,1.1 0,0.6 -0.5,1.1 -1.1,1.1 -0.6,0 -1.1,-0.5 -1.1,-1.1 l 0,0 z"
       id="path41"
       inkscape:connector-curvature="0" /><path
       d="m 50.1,18 c 0,-0.6 0.5,-1.1 1.1,-1.1 0.6,0 1.1,0.5 1.1,1.1 0,0.6 -0.5,1.1 -1.1,1.1 -0.6,0 -1.1,-0.5 -1.1,-1.1 l 0,0 z"
       id="path43"
       inkscape:connector-curvature="0" /><path
       d="m 49.9,20.5 c 0,-0.6 0.5,-1.1 1.1,-1.1 0.6,0 1.1,0.5 1.1,1.1 0,0.6 -0.5,1.1 -1.1,1.1 -0.6,0.1 -1.1,-0.5 -1.1,-1.1 l 0,0 z"
       id="path45"
       inkscape:connector-curvature="0" /><path
       class="st0"
       d="m 38.7,12.3 c -0.1,-0.6 -0.5,-1.1 -1.1,-1.4 l -0.5,-0.9 0.1,-0.1 0.9,0.5 0,-1.5 -0.9,0.5 -0.1,-0.1 0.5,-0.9 -1.6,0 0.5,0.9 -0.1,0.1 -0.9,-0.5 0,1.4 0.9,-0.5 0.1,0.1 -0.5,1 c -0.6,0.3 -1,0.8 -1.1,1.4 0,0 0.1,-0.3 1.4,-0.3 l 0,-1 c 0.2,-0.1 0.3,-0.1 0.5,-0.1 0.2,0 0.3,0 0.5,0.1 l 0,1 c 1.3,0 1.4,0.3 1.4,0.3 l 0,0 z"
       id="path47"
       inkscape:connector-curvature="0"
       style="clip-rule:evenodd;fill-rule:evenodd" /><path
       class="st0"
       d="m 36.8,18.9 c -1,0 -0.9,0.1 -1.3,0.2 0,-1.6 -0.3,-3.1 -1.4,-4.5 -0.1,-0.4 0.5,-0.6 0.5,-0.6 0.4,0.8 1.3,1.3 2.2,1.3 0.9,0 1.8,-0.5 2.2,-1.3 0,0 0.6,0.2 0.5,0.6 -1.1,1.4 -1.4,2.9 -1.4,4.5 -0.4,-0.1 -0.3,-0.2 -1.3,-0.2 l 0,0 0,0 z"
       id="path49"
       inkscape:connector-curvature="0"
       style="clip-rule:evenodd;fill-rule:evenodd" /><path
       d="m 36.8,19.3 c 0.4,0 1,0.1 1.2,0.3 0,0.6 -0.3,0.6 -0.5,0.8 -0.3,0.3 -0.2,0.9 0.3,1 0.2,0 0.5,-0.1 0.7,-0.4 0.1,-0.2 0.1,-0.4 0.3,-0.4 0.3,-0.1 0.4,0.3 0.5,0.6 0.1,0.3 -0.1,1.7 -0.7,1.6 -0.4,-0.1 -0.2,-0.6 -0.7,-0.7 -0.3,-0.1 -0.4,-0.2 -0.7,0 -0.4,0.2 -0.2,1 0,1.5 0.2,0.3 0.3,0.6 0.6,0.7 1.1,0.5 1.8,-1.7 1.9,-2.1 -0.2,-0.1 -0.3,-0.3 -0.2,-0.5 0.1,-0.2 0.2,-0.2 0.3,-0.3 0.2,0 0.4,0.1 0.5,0.3 0.1,0.2 0,0.3 -0.1,0.5 -0.1,0.1 -0.2,0.1 -0.3,0.1 -0.1,0.5 -0.2,2 0.6,2.3 0.3,0.1 0.9,-0.3 1.2,-0.8 0.3,-0.5 0.7,-1.4 0.2,-1.5 -0.2,-0.1 -0.4,-0.1 -0.6,0.1 -0.4,0.3 -0.4,0.7 -0.8,0.5 -0.2,-0.1 -0.1,-0.6 0,-1 0.1,-0.5 0.3,-1.1 0.7,-1.1 0.4,0 0.3,0.7 0.8,0.8 0.2,0.1 0.4,-0.1 0.5,-0.2 0.2,-0.2 0.1,-0.4 0.1,-0.6 0,-0.3 -0.3,-0.4 -0.2,-0.7 0,-0.8 2,-0.5 2.2,0.3 0.1,0.4 -1.2,0.7 -1,1.4 0,0.2 0.4,0.2 0.6,0.1 0.4,-0.1 0.4,-0.5 0.8,-0.5 0.8,-0.1 -0.4,2.5 -0.8,2 -0.2,-0.2 -0.1,-0.5 -0.3,-0.6 -0.1,-0.1 -0.1,-0.1 -0.2,-0.1 -0.6,-0.2 -1.1,0.7 -1,1.3 0,0.4 0.1,0.8 0.5,0.9 0.5,0.1 1.5,-0.6 2.2,-1.8 -0.1,-0.2 -0.1,-0.4 0,-0.5 0.1,-0.2 0.2,-0.2 0.4,-0.2 0.1,0 0.2,0.1 0.3,0.2 0.1,0.2 0.1,0.4 0,0.5 -0.1,0.1 -0.2,0.2 -0.4,0.2 -0.3,0.5 -1,2 -0.1,2.2 0.5,0.1 1.3,-0.5 1.5,-0.6 0.4,-0.4 1.2,-1 0.8,-1.2 -0.6,-0.3 -1.1,0.6 -1.5,0.2 -0.2,-0.3 0.1,-0.9 0.4,-1.3 0.2,-0.3 0.3,-0.5 0.6,-0.6 0.5,-0.1 0.3,0.9 0.8,1.1 1,0.3 0.3,-1.5 1.2,-1.6 0.4,0 0.7,0 0.8,0.3 0.1,0.2 0,0.6 0,0.6 -2.1,1.9 -3,3.4 -4,4.9 -0.3,-0.9 -4.2,-1.6 -9.4,-1.6 -5.2,0 -9.1,0.7 -9.4,1.6 -0.6,-1.1 -1.9,-3 -4,-4.9 0,0 -0.1,-0.4 0,-0.6 0.2,-0.3 0.4,-0.4 0.8,-0.3 0.9,0.1 0.1,1.9 1.2,1.6 0.5,-0.1 0.3,-1.2 0.8,-1.1 0.3,0.1 0.4,0.3 0.6,0.6 0.3,0.5 0.6,1.1 0.4,1.3 -0.4,0.4 -0.9,-0.6 -1.5,-0.2 -0.4,0.3 0.4,0.8 0.8,1.2 0.1,0.1 1,0.8 1.5,0.6 0.8,-0.3 0.1,-1.7 -0.1,-2.2 -0.2,0 -0.3,0 -0.4,-0.2 -0.1,-0.2 -0.1,-0.4 0,-0.5 0.1,-0.1 0.2,-0.1 0.3,-0.2 0.2,0 0.3,0.1 0.4,0.2 0.1,0.2 0.1,0.3 0,0.5 0.7,1.2 1.7,1.9 2.2,1.8 0.4,-0.1 0.5,-0.5 0.5,-0.9 0.1,-0.7 -0.4,-1.6 -1,-1.3 -0.1,0 -0.2,0.1 -0.2,0.1 -0.2,0.2 -0.1,0.4 -0.3,0.6 -0.5,0.6 -1.7,-2.1 -0.8,-2 0.4,0.1 0.4,0.4 0.8,0.5 0.2,0.1 0.6,0.1 0.6,-0.1 0.1,-0.7 -1.2,-1 -1,-1.4 0.2,-0.8 2.1,-1.1 2.2,-0.3 0,0.3 -0.2,0.4 -0.2,0.7 0,0.2 0,0.4 0.1,0.6 0.1,0.2 0.3,0.3 0.5,0.2 0.5,-0.1 0.3,-0.8 0.8,-0.8 0.4,0 0.5,0.6 0.7,1.1 0.1,0.4 0.2,0.9 0,1 -0.3,0.1 -0.4,-0.2 -0.8,-0.5 -0.2,-0.2 -0.4,-0.2 -0.6,-0.1 -0.5,0.1 -0.1,1 0.2,1.5 0.3,0.5 0.9,0.9 1.2,0.8 0.8,-0.3 0.7,-1.8 0.6,-2.3 -0.1,0 -0.2,-0.1 -0.3,-0.1 -0.1,-0.1 -0.1,-0.3 -0.1,-0.5 0.1,-0.2 0.3,-0.3 0.5,-0.3 0.2,0 0.3,0.1 0.3,0.3 0.1,0.2 0,0.4 -0.2,0.5 0.1,0.4 0.8,2.5 1.9,2.1 0.3,-0.2 0.5,-0.4 0.6,-0.7 0.3,-0.5 0.4,-1.4 0,-1.5 -0.3,-0.1 -0.4,-0.1 -0.7,0 -0.5,0.2 -0.3,0.7 -0.7,0.7 -0.6,0.1 -0.8,-1.3 -0.7,-1.6 0.1,-0.3 0.2,-0.7 0.5,-0.6 0.2,0 0.2,0.2 0.3,0.4 0.2,0.2 0.5,0.4 0.7,0.4 0.5,-0.1 0.6,-0.8 0.3,-1 -0.2,-0.2 -0.5,-0.3 -0.5,-0.8 0.1,-0.2 0.8,-0.3 1.2,-0.3 l 0,0 z"
       id="path51"
       inkscape:connector-curvature="0" /><path
       class="st0"
       d="m 36.8,26.4 -1.9,1.1 1.9,1.1 1.9,-1.1 -1.9,-1.1 0,0 z m 6.4,2.3 -2.9,-0.4 0,-1.5 2.9,0.3 0,1.6 0,0 z m 1.2,-0.4 1.1,-0.3 0.8,1.2 -0.7,0.4 -1.2,-1.3 0,0 z m -14.1,0.4 2.9,-0.4 0,-1.5 -2.9,0.3 0,1.6 0,0 z M 29.1,28.3 28,28 l -0.8,1.2 0.7,0.4 1.2,-1.3 0,0 z m 7.7,-2 c 5.2,0 9.4,0.5 9.3,1.7 0,0.3 0.3,0.7 0.8,1.3 -0.2,0.2 -0.9,0.2 -0.8,0.9 -0.7,-0.7 -5.6,-1.2 -9.2,-1.2 -3.7,0 -8.5,0.4 -9.2,1.2 0.1,-0.6 -0.6,-0.6 -0.8,-0.9 0.5,-0.7 0.8,-1 0.8,-1.3 -0.3,-1.2 3.9,-1.7 9.1,-1.7 l 0,0 z"
       id="path53"
       inkscape:connector-curvature="0"
       style="clip-rule:evenodd;fill-rule:evenodd" /><polygon
       points="12.9,74.1 12.9,12.9 12.9,12.9 13.8,12.9 13.8,74.1 "
       id="polygon55" /></g><g
     id="g57"
     transform="translate(-10.000001,0.400002)"><path
       d="m 74.2,44.6 0,5.4 -1.6,0 0,-12.1 6.9,0 0,1.4 -5.3,0 0,4 5.3,0 0,1.3 -5.3,0 z"
       id="path59"
       inkscape:connector-curvature="0" /><path
       d="m 85.8,50.2 c -2.4,0 -4,-1.6 -4,-4.2 0,-2.2 1.6,-4 4.1,-4 2.4,0 4,1.6 4,4.1 0,2.5 -1.8,4.1 -4.1,4.1 z m -0.1,-7.1 c -1.6,0 -2.5,1.3 -2.5,2.8 0,1.7 0.8,3.2 2.7,3.2 1.6,0 2.3,-1.3 2.3,-2.8 0.1,-1.9 -0.9,-3.2 -2.5,-3.2 z"
       id="path61"
       inkscape:connector-curvature="0" /><path
       d="m 97.9,50 c 0,0 0,-4.5 0,-5.2 -0.1,-1.1 -0.6,-1.6 -1.7,-1.6 -1.2,0 -1.9,0.6 -1.9,0.6 l 0,6.2 -1.5,0 0,-7.9 1.5,0 0,0.9 c 0.4,-0.3 1.3,-1 2.6,-1 1.4,0 2.4,0.8 2.5,2.5 0.1,1.2 0,5.6 0,5.6 l -1.5,0 z"
       id="path63"
       inkscape:connector-curvature="0" /><path
       d="m 108.1,50 0,-0.7 c -0.4,0.3 -1.1,0.8 -2.4,0.8 -1.9,0 -3.4,-1.6 -3.4,-3.9 0,-2.5 1.7,-4.3 4.1,-4.3 1,0 1.6,0.3 1.6,0.3 l 0,-5 1.5,0 0,12.8 -1.4,0 z m 0,-6.5 c 0,0 -0.6,-0.4 -1.6,-0.4 -1.3,0 -2.6,0.7 -2.6,3 0,1.9 0.9,3 2.6,3 1,0 1.6,-0.6 1.6,-0.6 l 0,-5 z"
       id="path65"
       inkscape:connector-curvature="0" /><path
       d="m 117.9,50.2 c -0.8,0 -1.1,-0.9 -1.1,-0.9 0,0 -0.9,0.9 -2.1,0.9 -1.2,0 -2.2,-0.8 -2.2,-2.1 0,-1.3 0.9,-1.9 2,-2.3 0.9,-0.3 2.2,-0.4 2.2,-0.4 0,0 0,-0.2 0,-0.6 0,-0.4 0,-0.9 -0.3,-1.2 -0.3,-0.3 -0.8,-0.4 -1.2,-0.4 -1.4,0 -2.3,0.9 -2.3,0.9 L 112.6,43 c 0,0 1.5,-1 3,-1 1.6,0 2.4,0.9 2.4,1.9 0,1.6 -0.1,3.1 -0.1,3.9 0,0.9 0.2,1.3 0.7,1.3 0.4,0 0.8,-0.2 0.8,-0.2 l 0,0.8 c 0.1,0 -0.8,0.5 -1.5,0.5 z m -2.6,-3.7 c -0.8,0.2 -1.4,0.6 -1.4,1.3 0,1 0.8,1.3 1.4,1.3 0.6,0 1,-0.4 1.3,-0.7 l 0,-2.2 c 0.1,0.1 -0.6,0.1 -1.3,0.3 z"
       id="path67"
       inkscape:connector-curvature="0" /><path
       d="m 123.7,50.2 c -0.9,0 -1.4,-0.4 -1.6,-1 -0.2,-0.6 -0.2,-1.5 -0.2,-2.3 0,-1.6 0.1,-3.4 0.1,-3.4 l -1.2,0 0,-1.1 1.2,0 0.5,-1.9 1,0 0,1.9 2.3,0 0,1 -2.3,0 c 0,0 0,1.5 -0.1,2.9 0,1 0,1.6 0.1,2 0.1,0.4 0.4,0.6 0.8,0.6 0.7,0 1.3,-0.4 1.6,-0.7 l 0.2,1 c -0.1,0.1 -1.1,1 -2.4,1 z"
       id="path69"
       inkscape:connector-curvature="0" /><path
       d="m 129.4,39.9 c -0.5,0 -1,-0.4 -1,-1 0,-0.5 0.4,-1 1,-1 0.5,0 1,0.4 1,1 0,0.5 -0.5,1 -1,1 z m -0.7,10.1 0,-7.9 1.5,0 0,7.9 -1.5,0 z"
       id="path71"
       inkscape:connector-curvature="0" /><path
       d="m 137.1,50.2 c -2.4,0 -4,-1.6 -4,-4.2 0,-2.2 1.6,-4 4.1,-4 2.4,0 4,1.6 4,4.1 0,2.5 -1.7,4.1 -4.1,4.1 z m 0,-7.1 c -1.6,0 -2.5,1.3 -2.5,2.8 0,1.7 0.8,3.2 2.7,3.2 1.6,0 2.3,-1.3 2.3,-2.8 0.1,-1.9 -0.9,-3.2 -2.5,-3.2 z"
       id="path73"
       inkscape:connector-curvature="0" /><path
       d="m 149.3,50 c 0,0 0,-4.5 0,-5.2 -0.1,-1.1 -0.6,-1.6 -1.7,-1.6 -1.2,0 -1.9,0.6 -1.9,0.6 l 0,6.2 -1.5,0 0,-7.9 1.5,0 0,0.9 c 0.4,-0.3 1.3,-1 2.6,-1 1.4,0 2.4,0.8 2.5,2.5 0.1,1.2 0,5.6 0,5.6 l -1.5,0 z"
       id="path75"
       inkscape:connector-curvature="0" /><path
       d="m 82.5,74 c 0,0 -0.4,0.1 -0.9,0.1 -0.4,0 -0.8,-0.1 -1.2,-0.4 -0.5,-0.3 -1.1,-0.9 -2.1,-2 -0.8,-0.9 -2.1,-2.5 -2.1,-2.5 l -2,-0.1 0,5 -1.6,0 0,-12.2 c 0,0 1.5,0 3,0 1.2,0 2.1,0.1 2.9,0.5 1,0.5 1.6,1.4 1.6,2.7 0,2.4 -1.9,3.3 -2.3,3.5 0,0 0.9,1.2 2,2.3 0.3,0.3 1,1.1 1.7,1.6 0.8,0.6 1.2,0.5 1.2,0.5 l -0.2,1 z M 77.6,63.6 C 77.2,63.2 76.4,63 75.5,63 c -0.9,0 -1.3,0 -1.3,0 l 0,4.9 c 0,0 0.7,0.1 1.4,0.1 1.7,0 2.7,-0.9 2.7,-2.7 0.1,-0.5 -0.1,-1.2 -0.7,-1.7 z"
       id="path77"
       inkscape:connector-curvature="0" /><path
       d="m 88.3,74.2 c -2.4,0 -4,-1.6 -4,-4.2 0,-2.2 1.6,-4 4.1,-4 2.4,0 4,1.6 4,4.1 0,2.5 -1.8,4.1 -4.1,4.1 z m 0,-7.1 c -1.6,0 -2.5,1.3 -2.5,2.8 0,1.7 0.8,3.2 2.7,3.2 1.6,0 2.3,-1.3 2.3,-2.8 0,-1.8 -0.9,-3.2 -2.5,-3.2 z"
       id="path79"
       inkscape:connector-curvature="0" /><path
       d="m 96,63.9 c -0.5,0 -1,-0.4 -1,-1 0,-0.5 0.4,-1 1,-1 0.6,0 1,0.4 1,1 0,0.5 -0.5,1 -1,1 z m -0.7,10.1 0,-7.9 1.5,0 0,7.9 -1.5,0 z"
       id="path81"
       inkscape:connector-curvature="0" /><path
       d="m 108.6,74.1 c -1.3,0 -3.4,0 -3.4,0 l 0,-12.2 c 0,0 2,0 3.2,0 2.3,0 4,0.8 4,2.9 0,1.9 -1.8,2.7 -1.8,2.7 0,0 2.7,0.5 2.7,2.9 0,2.7 -2.2,3.7 -4.7,3.7 z M 108.2,63 c -0.6,0 -1.4,0 -1.4,0 l 0,4.1 c 0,0 0.5,0.1 1.3,0.1 1.9,0 2.6,-1 2.6,-2.2 -0.1,-1.3 -1,-2 -2.5,-2 z m 2.3,5.8 c -0.7,-0.5 -1.5,-0.5 -2.5,-0.5 -0.9,0 -1.2,0 -1.2,0 l 0,4.6 c 0,0 0.5,0.1 1.9,0.1 1.5,0 2.9,-0.6 2.9,-2.3 -0.1,-1 -0.5,-1.5 -1.1,-1.9 z"
       id="path83"
       inkscape:connector-curvature="0" /><path
       d="m 121.2,74.2 c -0.8,0 -1.1,-0.9 -1.1,-0.9 0,0 -0.9,0.9 -2.1,0.9 -1.2,0 -2.2,-0.8 -2.2,-2.1 0,-1.3 0.9,-1.9 2,-2.3 0.9,-0.3 2.2,-0.4 2.2,-0.4 0,0 0,-0.2 0,-0.6 0,-0.4 0,-0.9 -0.3,-1.2 -0.3,-0.3 -0.8,-0.4 -1.2,-0.4 -1.4,0 -2.3,0.9 -2.3,0.9 L 116,67 c 0,0 1.5,-1 3,-1 1.6,0 2.4,0.9 2.4,1.9 0,1.6 -0.1,3.1 -0.1,3.9 0,0.9 0.2,1.3 0.7,1.3 0.4,0 0.8,-0.2 0.8,-0.2 l 0,0.8 c 0,0 -0.9,0.5 -1.6,0.5 z m -2.6,-3.7 c -0.8,0.2 -1.4,0.6 -1.4,1.3 0,1 0.8,1.3 1.4,1.3 0.6,0 1,-0.4 1.3,-0.7 l 0,-2.2 c 0.1,0.1 -0.6,0.1 -1.3,0.3 z"
       id="path85"
       inkscape:connector-curvature="0" /><path
       d="m 130.2,74 0,-0.8 c -0.4,0.3 -1.3,0.9 -2.6,0.9 -1.4,0 -2.3,-0.7 -2.4,-2.4 -0.1,-1.2 0,-5.5 0,-5.5 l 1.5,0 c 0,0 0,4.5 0,5.2 0.1,1.1 0.5,1.6 1.7,1.6 1.2,0 1.9,-0.7 1.9,-0.7 l 0,-6.1 1.5,0 0,7.8 -1.6,0 z"
       id="path87"
       inkscape:connector-curvature="0" /><path
       d="m 140.3,74 0,-0.7 c -0.4,0.3 -1.1,0.8 -2.4,0.8 -1.9,0 -3.4,-1.6 -3.4,-3.9 0,-2.5 1.7,-4.3 4.1,-4.3 1,0 1.6,0.3 1.6,0.3 l 0,-5 1.5,0 0,12.8 -1.4,0 z m 0,-6.5 c 0,0 -0.6,-0.5 -1.6,-0.5 -1.3,0 -2.6,0.7 -2.6,3 0,1.9 0.9,3 2.6,3 1,0 1.6,-0.6 1.6,-0.6 l 0,-4.9 z"
       id="path89"
       inkscape:connector-curvature="0" /><path
       d="m 148.8,74.2 c -2.4,0 -4,-1.6 -4,-4.2 0,-2.2 1.6,-4 4.1,-4 2.4,0 4,1.6 4,4.1 0,2.5 -1.7,4.1 -4.1,4.1 z m 0,-7.1 c -1.6,0 -2.5,1.3 -2.5,2.8 0,1.7 0.8,3.2 2.7,3.2 1.6,0 2.3,-1.3 2.3,-2.8 0.1,-1.8 -0.9,-3.2 -2.5,-3.2 z"
       id="path91"
       inkscape:connector-curvature="0" /><path
       d="m 160.9,74 0,-0.8 c -0.4,0.3 -1.3,0.9 -2.6,0.9 -1.4,0 -2.3,-0.7 -2.4,-2.4 -0.1,-1.2 0,-5.5 0,-5.5 l 1.5,0 c 0,0 0,4.5 0,5.2 0.1,1.1 0.5,1.6 1.7,1.6 1.2,0 1.9,-0.7 1.9,-0.7 l 0,-6.1 1.5,0 0,7.8 -1.6,0 z"
       id="path93"
       inkscape:connector-curvature="0" /><path
       d="m 166.9,63.9 c -0.5,0 -1,-0.4 -1,-1 0,-0.5 0.4,-1 1,-1 0.5,0 1,0.4 1,1 -0.1,0.5 -0.5,1 -1,1 z m -0.8,10.1 0,-7.9 1.5,0 0,7.9 -1.5,0 z"
       id="path95"
       inkscape:connector-curvature="0" /><path
       d="m 176.5,74 c 0,0 0,-4.5 0,-5.2 -0.1,-1.1 -0.6,-1.6 -1.7,-1.6 -1.2,0 -1.9,0.6 -1.9,0.6 l 0,6.2 -1.5,0 0,-7.9 1.5,0 0,0.9 c 0.4,-0.3 1.3,-1 2.6,-1 1.4,0 2.4,0.8 2.5,2.5 0.1,1.2 0,5.6 0,5.6 l -1.5,0 z"
       id="path97"
       inkscape:connector-curvature="0" /></g><g
     id="g99"
     transform="translate(-10.000001,0.400002)"><path
       d="m 19.3,94.7 -0.7,-3.2 -2.8,0 -1.6,3.2 -1.1,0 4.6,-8.7 0.8,0 2,8.7 -1.2,0 z m -1.6,-7 -1.5,3 2.2,0 -0.7,-3 z"
       id="path101"
       inkscape:connector-curvature="0" /><path
       d="m 26.5,91.7 c -0.3,1.4 -0.4,1.7 -0.4,2.5 0,0.3 0.1,1 0.1,1.3 0,1 -0.1,1.7 -0.8,2.3 -0.5,0.4 -1.2,0.7 -2.1,0.7 -1.5,0 -2.4,-0.9 -2.4,-0.9 l 0.3,-0.8 c 0,0 1,0.9 2.3,0.9 0.8,0 1.2,-0.3 1.6,-0.6 0.3,-0.3 0.3,-0.9 0.3,-1.5 0,-0.6 -0.1,-1 -0.1,-1.3 0,-0.7 0.1,-0.9 0.1,-0.9 0,0 -1,1.6 -2.7,1.6 -0.7,0 -0.9,-0.6 -0.9,-1.5 0,-1.3 0.5,-3 1.6,-3.9 0.5,-0.4 1,-0.5 1.6,-0.5 0.8,0 1.2,0.4 1.2,0.4 l 0.2,-0.4 0.6,0 c 0.1,-0.1 -0.2,1.2 -0.5,2.6 z m -1.6,-2 c -0.4,0 -0.8,0.2 -1.1,0.5 -0.6,0.6 -1,2 -1,3.1 0,0.6 0.2,0.7 0.5,0.7 0.4,0 0.9,-0.2 1.4,-0.8 0.5,-0.5 0.9,-1.1 1,-1.6 L 26,90 c -0.2,-0.1 -0.5,-0.3 -1.1,-0.3 z"
       id="path103"
       inkscape:connector-curvature="0" /><path
       d="m 28.9,94.7 -0.9,0 0.9,-5.7 0.9,0 -0.9,5.7 z m 0.7,-7.3 c -0.5,0 -0.5,-0.4 -0.5,-0.6 0,-0.5 0.3,-0.8 0.7,-0.8 0.4,0 0.5,0.2 0.5,0.6 0,0.4 -0.3,0.8 -0.7,0.8 z"
       id="path105"
       inkscape:connector-curvature="0" /><path
       d="m 34.8,90.3 c 0,0 -0.3,-0.4 -0.7,-0.4 -0.7,0 -1.4,0.9 -1.9,2.5 -0.1,0.3 -0.4,2.3 -0.4,2.3 l -0.9,0 C 31,93.8 31.7,90.5 31.8,89 l 1,0 c -0.1,0.7 -0.3,1.7 -0.3,1.7 0.5,-1.1 1.3,-1.8 2,-1.8 0.6,0 0.9,0.5 0.9,0.5 l -0.6,0.9 z"
       id="path107"
       inkscape:connector-curvature="0" /><path
       d="m 40.5,92 c -0.8,0.3 -1.7,0.4 -1.7,0.4 0,0 0,0.2 0,0.4 0,0.7 0.3,1.2 1,1.2 1.2,0 2.2,-1 2.2,-1 l 0.4,0.7 c 0,0 -1.2,1.2 -2.8,1.2 -1,0 -1.8,-0.5 -1.8,-1.9 0,-1.9 1,-4 3.1,-4 0.9,0 1.5,0.4 1.5,1.2 0,0.9 -0.7,1.4 -1.9,1.8 z m 0.2,-2.3 c -0.7,0 -1.5,0.6 -1.8,2 0,0 0.5,-0.1 1.3,-0.3 0.7,-0.2 1.2,-0.5 1.2,-1.1 0,-0.5 -0.4,-0.6 -0.7,-0.6 z"
       id="path109"
       inkscape:connector-curvature="0" /><path
       d="m 47.3,94.7 c -0.4,0 -0.6,-0.1 -0.6,-0.1 0.3,-2 0.7,-3.9 0.7,-4.4 0,-0.3 0,-0.4 -0.3,-0.4 -0.9,0 -2.2,1.4 -2.4,2.4 -0.1,0.4 -0.5,2.5 -0.5,2.5 l -0.9,0 c 0.1,-0.9 0.8,-4.5 1,-5.7 l 1,0 c -0.1,0.7 -0.3,1.6 -0.3,1.6 0,0 1.1,-1.8 2.7,-1.8 0.6,0 0.9,0.4 0.9,0.9 0,0.5 -0.4,2.6 -0.6,4 0.4,0 1,-0.3 1,-0.3 l 0.3,0.6 c -0.3,0.2 -0.9,0.7 -2,0.7 z"
       id="path111"
       inkscape:connector-curvature="0" /><path
       d="m 53.8,90 c 0,0 -0.5,-0.3 -1.3,-0.3 -0.7,0 -1.1,0.3 -1.1,0.7 0,0.5 0.3,0.7 1,1.1 0.4,0.3 1.2,0.8 1.2,1.6 0,1.2 -0.8,1.7 -2.1,1.7 -1,0 -1.7,-0.5 -1.7,-0.5 l 0.1,-0.9 c 0,0 0.8,0.7 1.7,0.7 0.7,0 1.1,-0.2 1.1,-0.7 0,-0.4 -0.3,-0.8 -1,-1.2 -0.7,-0.4 -1.2,-0.9 -1.2,-1.6 0,-1.1 0.9,-1.7 2,-1.7 0.9,0 1.3,0.2 1.3,0.2 l 0,0.9 z"
       id="path113"
       inkscape:connector-curvature="0" /><path
       d="m 57.4,92 c -0.8,0.3 -1.7,0.4 -1.7,0.4 0,0 0,0.2 0,0.4 0,0.7 0.3,1.2 1,1.2 1.2,0 2.2,-1 2.2,-1 l 0.4,0.7 c 0,0 -1.2,1.2 -2.8,1.2 -1,0 -1.8,-0.5 -1.8,-1.9 0,-1.9 1,-4 3.1,-4 0.9,0 1.5,0.4 1.5,1.2 0,0.9 -0.7,1.4 -1.9,1.8 z m 0.2,-2.3 c -0.7,0 -1.5,0.6 -1.8,2 0,0 0.5,-0.1 1.3,-0.3 0.7,-0.2 1.2,-0.5 1.2,-1.1 0,-0.5 -0.3,-0.6 -0.7,-0.6 z"
       id="path115"
       inkscape:connector-curvature="0" /><path
       d="m 67.6,94.7 c -0.4,0 -0.6,-0.1 -0.6,-0.1 0.3,-2 0.7,-3.9 0.7,-4.4 0,-0.3 0,-0.4 -0.3,-0.4 -1,0 -2.2,1.6 -2.4,2.2 -0.2,1 -0.4,2.1 -0.5,2.7 l -1,0 c 0.3,-2 0.7,-3.9 0.7,-4.5 0,-0.3 0,-0.4 -0.3,-0.4 -0.9,0 -2.2,1.4 -2.4,2.4 -0.1,0.4 -0.5,2.5 -0.5,2.5 l -0.9,0 c 0.1,-0.9 0.8,-4.5 1,-5.7 l 1,0 c -0.1,0.7 -0.3,1.6 -0.3,1.6 0,0 1.1,-1.8 2.7,-1.8 0.6,0 0.8,0.4 0.8,0.9 0,0.2 -0.1,0.8 -0.1,0.8 0,0 1.1,-1.7 2.6,-1.7 0.6,0 0.9,0.4 0.9,0.9 0,0.5 -0.4,2.6 -0.6,4 0.4,0 1,-0.3 1,-0.3 l 0.3,0.6 c -0.1,0.2 -0.7,0.7 -1.8,0.7 z"
       id="path117"
       inkscape:connector-curvature="0" /><path
       d="m 72.4,94.9 c -1.3,0 -2.1,-0.6 -2.1,-0.6 l 1.5,-8.7 0.9,0 -0.9,4.9 c 0.2,-0.4 1.1,-1.4 2.3,-1.4 0.9,0 1.5,0.6 1.5,2 0,2 -1,3.8 -3.2,3.8 z m 1.5,-5.1 c -1,0 -2,1.1 -2.4,2.4 l -0.3,1.5 c 0,0 0.5,0.4 1.3,0.4 1.4,0 2.1,-1.3 2.1,-3.1 0,-0.8 -0.2,-1.2 -0.7,-1.2 z"
       id="path119"
       inkscape:connector-curvature="0" /><path
       d="m 77.6,94.7 -0.9,0 1.5,-9.2 0.9,0 -1.5,9.2 z"
       id="path121"
       inkscape:connector-curvature="0" /><path
       d="m 82.3,92 c -0.8,0.3 -1.7,0.4 -1.7,0.4 0,0 0,0.2 0,0.4 0,0.7 0.3,1.2 1,1.2 1.2,0 2.2,-1 2.2,-1 l 0.4,0.7 c 0,0 -1.2,1.2 -2.8,1.2 -1,0 -1.8,-0.5 -1.8,-1.9 0,-1.9 1,-4 3.1,-4 0.9,0 1.5,0.4 1.5,1.2 -0.1,0.9 -0.8,1.4 -1.9,1.8 z m 0.1,-2.3 c -0.7,0 -1.5,0.6 -1.8,2 0,0 0.5,-0.1 1.3,-0.3 0.7,-0.2 1.2,-0.5 1.2,-1.1 0,-0.5 -0.3,-0.6 -0.7,-0.6 z"
       id="path123"
       inkscape:connector-curvature="0" /><path
       d="m 89.7,94.9 c -0.7,0 -1.2,-0.2 -1.2,-0.2 l -0.6,3.7 -0.9,0 c 0,0 0.5,-2.9 0.8,-4.7 0.3,-1.8 0.7,-4.6 0.7,-4.6 l 0.9,0 -0.2,1.3 c 0.2,-0.4 1.1,-1.5 2.3,-1.5 0.9,0 1.5,0.6 1.5,2 0,1.8 -0.9,4 -3.3,4 z m 1.5,-5.1 c -0.9,0 -2,1.1 -2.3,2.4 l -0.3,1.6 c 0,0 0.4,0.4 1.3,0.4 1.4,0 2.1,-1.4 2.1,-3.1 0,-0.9 -0.3,-1.3 -0.8,-1.3 z"
       id="path125"
       inkscape:connector-curvature="0" /><path
       d="m 96.5,94.9 c -1.2,0 -2.5,-0.6 -2.5,-2.5 0,-1.9 1.2,-3.4 3,-3.4 1.1,0 2.4,0.4 2.4,2.5 0.1,1.7 -1,3.4 -2.9,3.4 z M 97,89.7 c -0.8,0 -1.9,0.7 -1.9,2.7 0,1.2 0.7,1.7 1.5,1.7 0.9,0 1.9,-0.9 1.9,-2.7 0,-1.2 -0.7,-1.7 -1.5,-1.7 z"
       id="path127"
       inkscape:connector-curvature="0" /><path
       d="m 104.5,94.8 c -0.4,0 -0.6,-0.1 -0.6,-0.1 l 0.3,-1.6 c 0,0 -0.3,0.5 -0.8,0.9 -0.5,0.4 -1.1,0.8 -1.9,0.8 -0.6,0 -0.8,-0.4 -0.8,-1 0,-0.5 0.5,-3.2 0.7,-4.8 l 0.9,0 c -0.3,1.9 -0.7,3.9 -0.7,4.5 0,0.3 0,0.4 0.3,0.4 0.9,0 2.2,-1.5 2.4,-2.4 0.1,-0.5 0.5,-2.5 0.5,-2.5 l 0.9,0 c 0,0 -0.3,1.6 -0.5,2.6 -0.2,1.7 -0.2,2.4 -0.2,2.4 0.4,0 1,-0.3 1,-0.3 l 0.3,0.6 c -0.1,0 -0.7,0.5 -1.8,0.5 z"
       id="path129"
       inkscape:connector-curvature="0" /><path
       d="m 111.1,90.3 c 0,0 -0.3,-0.4 -0.7,-0.4 -0.7,0 -1.4,0.9 -1.9,2.5 -0.1,0.3 -0.4,2.3 -0.4,2.3 l -0.9,0 c 0.1,-0.9 0.8,-4.2 0.9,-5.7 l 1,0 c -0.1,0.7 -0.3,1.7 -0.3,1.7 0.5,-1.1 1.3,-1.8 2,-1.8 0.6,0 0.9,0.5 0.9,0.5 l -0.6,0.9 z"
       id="path131"
       inkscape:connector-curvature="0" /><path
       d="m 118.1,94.8 c -0.4,0 -0.6,-0.1 -0.6,-0.1 l 0.3,-1.6 c 0,0 -0.3,0.5 -0.8,0.9 -0.5,0.4 -1.1,0.8 -1.9,0.8 -0.6,0 -0.8,-0.4 -0.8,-1 0,-0.5 0.5,-3.2 0.7,-4.8 l 0.9,0 c -0.3,1.9 -0.7,3.9 -0.7,4.5 0,0.3 0,0.4 0.3,0.4 0.9,0 2.2,-1.5 2.4,-2.4 0.1,-0.5 0.5,-2.5 0.5,-2.5 l 0.9,0 c 0,0 -0.3,1.6 -0.5,2.6 -0.3,1.6 -0.4,2.3 -0.4,2.3 0.4,0 1,-0.3 1,-0.3 l 0.3,0.6 c 0.2,0.1 -0.5,0.6 -1.6,0.6 z"
       id="path133"
       inkscape:connector-curvature="0" /><path
       d="m 124.8,94.7 c -0.4,0 -0.6,-0.1 -0.6,-0.1 0.3,-2 0.7,-3.9 0.7,-4.4 0,-0.3 0,-0.4 -0.3,-0.4 -0.9,0 -2.2,1.4 -2.4,2.4 -0.1,0.4 -0.5,2.5 -0.5,2.5 l -0.9,0 c 0.1,-0.9 0.8,-4.5 1,-5.7 l 1,0 c -0.1,0.7 -0.3,1.6 -0.3,1.6 0,0 1.1,-1.8 2.7,-1.8 0.6,0 0.9,0.4 0.9,0.9 0,0.5 -0.4,2.6 -0.6,4 0.4,0 1,-0.3 1,-0.3 l 0.3,0.6 c -0.2,0.2 -0.9,0.7 -2,0.7 z"
       id="path135"
       inkscape:connector-curvature="0" /><path
       d="m 130.2,92 c -0.8,0.3 -1.7,0.4 -1.7,0.4 0,0 0,0.2 0,0.4 0,0.7 0.3,1.2 1,1.2 1.2,0 2.2,-1 2.2,-1 l 0.4,0.7 c 0,0 -1.2,1.2 -2.8,1.2 -1,0 -1.8,-0.5 -1.8,-1.9 0,-1.9 1,-4 3.1,-4 0.9,0 1.5,0.4 1.5,1.2 -0.1,0.9 -0.7,1.4 -1.9,1.8 z m 0.1,-2.3 c -0.7,0 -1.5,0.6 -1.8,2 0,0 0.5,-0.1 1.3,-0.3 0.7,-0.2 1.2,-0.5 1.2,-1.1 0,-0.5 -0.3,-0.6 -0.7,-0.6 z"
       id="path137"
       inkscape:connector-curvature="0" /><path
       d="m 139,90 c 0,0 -0.5,-0.3 -1.3,-0.3 -0.7,0 -1.1,0.3 -1.1,0.7 0,0.5 0.3,0.7 1,1.1 0.4,0.3 1.2,0.8 1.2,1.6 0,1.2 -0.8,1.7 -2.1,1.7 -1,0 -1.7,-0.5 -1.7,-0.5 l 0.1,-0.9 c 0,0 0.8,0.7 1.7,0.7 0.7,0 1.1,-0.2 1.1,-0.7 0,-0.4 -0.3,-0.8 -1,-1.2 -0.7,-0.4 -1.2,-0.9 -1.2,-1.6 0,-1.1 0.9,-1.7 2,-1.7 0.9,0 1.3,0.2 1.3,0.2 l 0,0.9 z"
       id="path139"
       inkscape:connector-curvature="0" /><path
       d="m 142.5,94.9 c -1.2,0 -2.5,-0.6 -2.5,-2.5 0,-1.9 1.2,-3.4 3,-3.4 1.1,0 2.4,0.4 2.4,2.5 0,1.7 -1.1,3.4 -2.9,3.4 z m 0.4,-5.2 c -0.8,0 -1.9,0.7 -1.9,2.7 0,1.2 0.7,1.7 1.5,1.7 0.9,0 1.9,-0.9 1.9,-2.7 0,-1.2 -0.7,-1.7 -1.5,-1.7 z"
       id="path141"
       inkscape:connector-curvature="0" /><path
       d="m 150.8,90.1 c 0,0 -0.6,-0.4 -1.4,-0.4 -1.4,0 -2,1.8 -2,3.1 0,0.7 0.3,1.2 1,1.2 1.2,0 2.2,-1 2.2,-1 l 0.4,0.7 c 0,0 -1.2,1.2 -2.8,1.2 -1,0 -1.8,-0.5 -1.8,-1.9 0,-2 1,-4 3.1,-4 0.9,0 1.5,0.3 1.5,0.3 l -0.2,0.8 z"
       id="path143"
       inkscape:connector-curvature="0" /><path
       d="m 152.8,94.7 -0.9,0 0.9,-5.7 0.9,0 -0.9,5.7 z m 0.8,-7.3 c -0.5,0 -0.5,-0.4 -0.5,-0.6 0,-0.5 0.3,-0.8 0.7,-0.8 0.4,0 0.5,0.2 0.5,0.6 0,0.4 -0.3,0.8 -0.7,0.8 z"
       id="path145"
       inkscape:connector-curvature="0" /><path
       d="m 157.5,92 c -0.8,0.3 -1.7,0.4 -1.7,0.4 0,0 0,0.2 0,0.4 0,0.7 0.3,1.2 1,1.2 1.2,0 2.2,-1 2.2,-1 l 0.4,0.7 c 0,0 -1.2,1.2 -2.8,1.2 -1,0 -1.8,-0.5 -1.8,-1.9 0,-1.9 1,-4 3.1,-4 0.9,0 1.5,0.4 1.5,1.2 -0.1,0.9 -0.7,1.4 -1.9,1.8 z m 0.2,-2.3 c -0.7,0 -1.5,0.6 -1.8,2 0,0 0.5,-0.1 1.3,-0.3 0.7,-0.2 1.2,-0.5 1.2,-1.1 0,-0.5 -0.4,-0.6 -0.7,-0.6 z m -0.5,-1.3 -0.5,-0.4 2.3,-2 0.6,0.5 -2.4,1.9 z"
       id="path147"
       inkscape:connector-curvature="0" /><path
       d="m 163.8,90 -1.7,0 c 0,0 -0.2,1 -0.4,2.1 -0.1,0.6 -0.2,1.1 -0.2,1.4 0,0.5 0.2,0.6 0.5,0.6 0.5,0 1,-0.4 1.2,-0.6 l 0,0.8 c 0,0 -0.7,0.6 -1.7,0.6 -0.8,0 -1.1,-0.5 -1.1,-1.1 0,-0.4 0.2,-1.5 0.3,-2.2 0.1,-0.9 0.3,-1.6 0.3,-1.6 l -0.9,0 0.1,-0.8 0.9,0 0.5,-1.4 0.7,0 -0.2,1.5 1.7,0 0,0.7 z"
       id="path149"
       inkscape:connector-curvature="0" /><path
       d="m 167.1,92 c -0.8,0.3 -1.7,0.4 -1.7,0.4 0,0 0,0.2 0,0.4 0,0.7 0.3,1.2 1,1.2 1.2,0 2.2,-1 2.2,-1 l 0.4,0.7 c 0,0 -1.2,1.2 -2.8,1.2 -1,0 -1.8,-0.5 -1.8,-1.9 0,-1.9 1,-4 3.1,-4 0.9,0 1.5,0.4 1.5,1.2 -0.1,0.9 -0.7,1.4 -1.9,1.8 z m 0.2,-2.3 c -0.7,0 -1.5,0.6 -1.8,2 0,0 0.5,-0.1 1.3,-0.3 0.7,-0.2 1.2,-0.5 1.2,-1.1 0,-0.5 -0.4,-0.6 -0.7,-0.6 z m -0.5,-1.3 -0.5,-0.4 2.3,-2 0.6,0.5 -2.4,1.9 z"
       id="path151"
       inkscape:connector-curvature="0" /><path
       d="m 179.8,94.7 c -0.4,0 -0.6,-0.1 -0.6,-0.1 0.3,-2 0.7,-3.9 0.7,-4.4 0,-0.3 0,-0.4 -0.3,-0.4 -1,0 -2.2,1.6 -2.4,2.2 -0.2,1 -0.4,2.1 -0.5,2.7 l -1,0 c 0.3,-2 0.7,-3.9 0.7,-4.5 0,-0.3 0,-0.4 -0.3,-0.4 -0.9,0 -2.2,1.4 -2.4,2.4 -0.1,0.4 -0.5,2.5 -0.5,2.5 l -0.9,0 c 0.1,-0.9 0.8,-4.5 1,-5.7 l 1,0 c -0.1,0.7 -0.3,1.6 -0.3,1.6 0,0 1.1,-1.8 2.7,-1.8 0.6,0 0.8,0.4 0.8,0.9 0,0.2 -0.1,0.8 -0.1,0.8 0,0 1.1,-1.7 2.6,-1.7 0.6,0 0.9,0.4 0.9,0.9 0,0.5 -0.4,2.6 -0.6,4 0.4,0 1,-0.3 1,-0.3 l 0.3,0.6 c -0.1,0.2 -0.8,0.7 -1.8,0.7 z"
       id="path153"
       inkscape:connector-curvature="0" /><path
       d="m 185.1,92 c -0.8,0.3 -1.7,0.4 -1.7,0.4 0,0 0,0.2 0,0.4 0,0.7 0.3,1.2 1,1.2 1.2,0 2.2,-1 2.2,-1 l 0.4,0.7 c 0,0 -1.2,1.2 -2.8,1.2 -1,0 -1.8,-0.5 -1.8,-1.9 0,-1.9 1,-4 3.1,-4 0.9,0 1.5,0.4 1.5,1.2 -0.1,0.9 -0.7,1.4 -1.9,1.8 z m 0.1,-2.3 c -0.7,0 -1.5,0.6 -1.8,2 0,0 0.5,-0.1 1.3,-0.3 0.7,-0.2 1.2,-0.5 1.2,-1.1 0,-0.5 -0.3,-0.6 -0.7,-0.6 z"
       id="path155"
       inkscape:connector-curvature="0" /><path
       d="m 188.8,94.7 -0.9,0 0.9,-5.7 0.9,0 -0.9,5.7 z m 0.7,-7.3 c -0.5,0 -0.5,-0.4 -0.5,-0.6 0,-0.5 0.3,-0.8 0.7,-0.8 0.4,0 0.5,0.2 0.5,0.6 0,0.4 -0.3,0.8 -0.7,0.8 z"
       id="path157"
       inkscape:connector-curvature="0" /><path
       d="m 191.7,94.7 -0.9,0 1.5,-9.2 0.9,0 -1.5,9.2 z"
       id="path159"
       inkscape:connector-curvature="0" /><path
       d="m 194.5,94.7 -0.9,0 1.5,-9.2 0.9,0 -1.5,9.2 z"
       id="path161"
       inkscape:connector-curvature="0" /><path
       d="m 199.2,92 c -0.8,0.3 -1.7,0.4 -1.7,0.4 0,0 0,0.2 0,0.4 0,0.7 0.3,1.2 1,1.2 1.2,0 2.2,-1 2.2,-1 l 0.4,0.7 c 0,0 -1.2,1.2 -2.8,1.2 -1,0 -1.8,-0.5 -1.8,-1.9 0,-1.9 1,-4 3.1,-4 0.9,0 1.5,0.4 1.5,1.2 -0.1,0.9 -0.7,1.4 -1.9,1.8 z m 0.2,-2.3 c -0.7,0 -1.5,0.6 -1.8,2 0,0 0.5,-0.1 1.3,-0.3 0.7,-0.2 1.2,-0.5 1.2,-1.1 -0.1,-0.5 -0.4,-0.6 -0.7,-0.6 z"
       id="path163"
       inkscape:connector-curvature="0" /><path
       d="m 205.9,94.8 c -0.4,0 -0.6,-0.1 -0.6,-0.1 l 0.3,-1.6 c 0,0 -0.3,0.5 -0.8,0.9 -0.5,0.4 -1.1,0.8 -1.9,0.8 -0.6,0 -0.8,-0.4 -0.8,-1 0,-0.5 0.5,-3.2 0.7,-4.8 l 0.9,0 c -0.3,1.9 -0.7,3.9 -0.7,4.5 0,0.3 0,0.4 0.3,0.4 0.9,0 2.2,-1.5 2.4,-2.4 0.1,-0.5 0.5,-2.5 0.5,-2.5 l 0.9,0 c 0,0 -0.3,1.6 -0.5,2.6 -0.3,1.6 -0.4,2.3 -0.4,2.3 0.4,0 1,-0.3 1,-0.3 l 0.3,0.6 c 0.1,0.1 -0.6,0.6 -1.6,0.6 z"
       id="path165"
       inkscape:connector-curvature="0" /><path
       d="m 212.5,90.3 c 0,0 -0.3,-0.4 -0.7,-0.4 -0.7,0 -1.4,0.9 -1.9,2.5 -0.1,0.3 -0.4,2.3 -0.4,2.3 l -0.9,0 c 0.1,-0.9 0.8,-4.2 0.9,-5.7 l 1,0 c -0.1,0.7 -0.3,1.7 -0.3,1.7 0.5,-1.1 1.3,-1.8 2,-1.8 0.6,0 0.9,0.5 0.9,0.5 l -0.6,0.9 z"
       id="path167"
       inkscape:connector-curvature="0" /><path
       d="m 215.7,92 c -0.8,0.3 -1.7,0.4 -1.7,0.4 0,0 0,0.2 0,0.4 0,0.7 0.3,1.2 1,1.2 1.2,0 2.2,-1 2.2,-1 l 0.4,0.7 c 0,0 -1.2,1.2 -2.8,1.2 -1,0 -1.8,-0.5 -1.8,-1.9 0,-1.9 1,-4 3.1,-4 0.9,0 1.5,0.4 1.5,1.2 0,0.9 -0.7,1.4 -1.9,1.8 z m 0.2,-2.3 c -0.7,0 -1.5,0.6 -1.8,2 0,0 0.5,-0.1 1.3,-0.3 0.7,-0.2 1.2,-0.5 1.2,-1.1 0,-0.5 -0.4,-0.6 -0.7,-0.6 z"
       id="path169"
       inkscape:connector-curvature="0" /></g></svg>