<svg width="50" height="50" viewBox="0 0 50 50" fill="none" xmlns="http://www.w3.org/2000/svg">
<circle cx="25.055" cy="25.055" r="24.055" stroke="#006794" stroke-width="2"/>
<path d="M36.447 24.7163C36.447 24.6486 36.447 24.5716 36.4445 24.4824C36.4419 24.2331 36.4368 23.953 36.4316 23.6544C36.4111 22.7957 36.3752 21.9401 36.3187 21.1337C36.2417 20.0226 36.1287 19.0961 35.9747 18.4005C35.8122 17.6746 35.4936 17.0126 35.0508 16.4805C34.608 15.9485 34.0565 15.5652 33.4514 15.3688C32.7249 15.1349 31.3028 14.9902 29.3006 14.901C28.3483 14.8579 27.3292 14.8302 26.3101 14.8148C25.9533 14.8086 25.6222 14.8056 25.3244 14.8025H24.5697C24.2719 14.8056 23.9408 14.8086 23.584 14.8148C22.5649 14.8302 21.5458 14.8579 20.5935 14.901C18.5912 14.9933 17.1666 15.138 16.4427 15.3688C15.8374 15.5647 15.2857 15.9479 14.8428 16.48C14.3999 17.0121 14.0815 17.6744 13.9194 18.4005C13.7628 19.0961 13.6524 20.0226 13.5754 21.1337C13.5189 21.9401 13.483 22.7957 13.4624 23.6544C13.4547 23.953 13.4522 24.2331 13.4496 24.4824C13.4496 24.5716 13.447 24.6486 13.447 24.7163V24.8887C13.447 24.9564 13.447 25.0333 13.4496 25.1226C13.4522 25.3719 13.4573 25.652 13.4624 25.9505C13.483 26.8093 13.5189 27.6649 13.5754 28.4713C13.6524 29.5824 13.7653 30.5089 13.9194 31.2045C14.2479 32.6788 15.2131 33.8422 16.4427 34.2362C17.1666 34.4701 18.5912 34.6147 20.5935 34.704C21.5458 34.7471 22.5649 34.7748 23.584 34.7902C23.9408 34.7963 24.2719 34.7994 24.5697 34.8025H25.3244C25.6222 34.7994 25.9533 34.7963 26.3101 34.7902C27.3292 34.7748 28.3483 34.7471 29.3006 34.704C31.3028 34.6117 32.7275 34.467 33.4514 34.2362C34.681 33.8422 35.6461 32.6818 35.9747 31.2045C36.1313 30.5089 36.2417 29.5824 36.3187 28.4713C36.3752 27.6649 36.4111 26.8093 36.4316 25.9505C36.4393 25.652 36.4419 25.3719 36.4445 25.1226C36.4445 25.0333 36.447 24.9564 36.447 24.8887V24.7163V24.7163ZM34.5988 24.8764C34.5988 24.941 34.5988 25.0118 34.5963 25.0949C34.5937 25.335 34.5886 25.5997 34.5834 25.8859C34.5655 26.7046 34.5295 27.5233 34.4756 28.2836C34.4063 29.2746 34.3088 30.0872 34.1881 30.632C34.029 31.343 33.5618 31.9062 32.9714 32.094C32.4323 32.2663 31.0744 32.4048 29.2287 32.4879C28.2944 32.531 27.2881 32.5587 26.2844 32.5741C25.9328 32.5803 25.6067 32.5833 25.3141 32.5833H24.58L23.6096 32.5741C22.606 32.5587 21.6023 32.531 20.6653 32.4879C18.8197 32.4017 17.4592 32.2663 16.9227 32.094C16.3323 31.9031 15.8651 31.343 15.706 30.632C15.5853 30.0872 15.4878 29.2746 15.4185 28.2836C15.3646 27.5233 15.3312 26.7046 15.3107 25.8859C15.303 25.5997 15.3004 25.3319 15.2978 25.0949C15.2978 25.0118 15.2953 24.9379 15.2953 24.8764V24.7286C15.2953 24.664 15.2953 24.5932 15.2978 24.5101C15.3004 24.27 15.3055 24.0053 15.3107 23.7191C15.3286 22.9004 15.3646 22.0817 15.4185 21.3214C15.4878 20.3303 15.5853 19.5178 15.706 18.973C15.8651 18.262 16.3323 17.6988 16.9227 17.511C17.4618 17.3387 18.8197 17.2002 20.6653 17.117C21.5997 17.074 22.606 17.0463 23.6096 17.0309C23.9613 17.0247 24.2873 17.0216 24.58 17.0216H25.3141L26.2844 17.0309C27.2881 17.0463 28.2918 17.074 29.2287 17.117C31.0744 17.2032 32.4349 17.3387 32.9714 17.511C33.5618 17.7018 34.029 18.262 34.1881 18.973C34.3088 19.5178 34.4063 20.3303 34.4756 21.3214C34.5295 22.0817 34.5629 22.9004 34.5834 23.7191C34.5911 24.0053 34.5937 24.2731 34.5963 24.5101C34.5963 24.5932 34.5988 24.6671 34.5988 24.7286V24.8764ZM22.6624 28.9268L28.6178 24.7717L22.6624 20.6781V28.9268Z" fill="#006794"/>
</svg>
