<svg width="30" height="30" viewBox="0 0 30 30" fill="none" xmlns="http://www.w3.org/2000/svg">
<path d="M13.1925 7.80004L8.96374 2.91879C8.47624 2.35629 7.58249 2.35879 7.01624 2.92629L3.53874 6.41004C2.50374 7.44629 2.20749 8.98504 2.80624 10.2188C6.38326 17.625 12.3563 23.6064 19.7575 27.1938C20.99 27.7925 22.5275 27.4963 23.5625 26.46L27.0725 22.9438C27.6412 22.375 27.6425 21.4763 27.075 20.9888L22.175 16.7825C21.6625 16.3425 20.8662 16.4 20.3525 16.915L18.6475 18.6225C18.5602 18.714 18.4453 18.7743 18.3204 18.7942C18.1956 18.8141 18.0676 18.7924 17.9562 18.7325C15.1693 17.1277 12.8575 14.8128 11.2562 12.0238C11.1963 11.9122 11.1746 11.7841 11.1944 11.659C11.2143 11.5339 11.2747 11.4188 11.3662 11.3313L13.0662 9.63004C13.5812 9.11254 13.6375 8.31254 13.1925 7.79879V7.80004Z" stroke="#006794" stroke-width="4.16667" stroke-linecap="round" stroke-linejoin="round"/>
</svg>
