<svg width="93" height="56" viewBox="0 0 93 56" fill="none" xmlns="http://www.w3.org/2000/svg">
<rect width="93" height="56" rx="10" fill="#FED74C"/>
<path d="M25.7578 38V21.2422H33.6094C36.7969 21.2422 38.3906 22.543 38.3906 25.1445C38.3906 27.0508 37.3516 28.4141 35.2734 29.2344C37.4922 29.6484 38.6016 30.918 38.6016 33.043C38.6016 36.3477 36.8555 38 33.3633 38H25.7578ZM33.2344 35.3047C34.6094 35.3047 35.2969 34.6016 35.2969 33.1953C35.2969 31.4531 34.2695 30.582 32.2148 30.582H31.2773V28.5781C33.8555 28.1484 35.1445 27.0703 35.1445 25.3438C35.1445 24.4062 34.5664 23.9375 33.4102 23.9375H28.8633V35.3047H33.2344ZM42.9727 38H39.7852L46.8984 21.2422H50.2383L57.5039 38H54.1641L52.2539 33.4297H46.6875L47.7539 30.7344H51.1289L48.4922 24.4414L42.9727 38ZM72.9141 37.2969C71.4688 37.8438 69.8281 38.1172 67.9922 38.1172C61.9766 38.1172 58.9688 35.207 58.9688 29.3867C58.9688 23.8789 61.9766 21.125 67.9922 21.125C69.8281 21.125 71.4688 21.3984 72.9141 21.9453V24.7578C71.4688 24.1328 69.9062 23.8203 68.2266 23.8203C64.2031 23.8203 62.1914 25.6758 62.1914 29.3867C62.1914 33.4102 64.2031 35.4219 68.2266 35.4219C69.9062 35.4219 71.4688 35.1094 72.9141 34.4844V37.2969Z" fill="#003F5A"/>
</svg>
