<svg width="26" height="14" viewBox="0 0 26 14" fill="none" xmlns="http://www.w3.org/2000/svg">
<path fill-rule="evenodd" clip-rule="evenodd" d="M1.08625 0.711247C1.17333 0.623941 1.27679 0.554673 1.39068 0.507411C1.50458 0.460148 1.62668 0.435822 1.75 0.435822C1.87331 0.435822 1.99541 0.460148 2.10931 0.507411C2.22321 0.554673 2.32666 0.623941 2.41375 0.711247L13 11.2994L23.5862 0.711247C23.6734 0.624082 23.7769 0.554939 23.8908 0.507766C24.0047 0.460592 24.1267 0.436312 24.25 0.436312C24.3733 0.436312 24.4953 0.460592 24.6092 0.507766C24.7231 0.554939 24.8266 0.624082 24.9137 0.711247C25.0009 0.798412 25.0701 0.901891 25.1172 1.01578C25.1644 1.12966 25.1887 1.25173 25.1887 1.375C25.1887 1.49827 25.1644 1.62033 25.1172 1.73422C25.0701 1.8481 25.0009 1.95158 24.9137 2.03875L13.6637 13.2887C13.5767 13.3761 13.4732 13.4453 13.3593 13.4926C13.2454 13.5398 13.1233 13.5642 13 13.5642C12.8767 13.5642 12.7546 13.5398 12.6407 13.4926C12.5268 13.4453 12.4233 13.3761 12.3362 13.2887L1.08625 2.03875C0.998941 1.95166 0.929674 1.84821 0.882411 1.73431C0.835149 1.62041 0.810822 1.49831 0.810822 1.375C0.810822 1.25168 0.835149 1.12958 0.882411 1.01568C0.929674 0.901787 0.998941 0.798332 1.08625 0.711247Z" fill="white"/>
</svg>
